<?xml version="1.0" standalone="no"?>
<!DOCTYPE svg PUBLIC "-//W3C//DTD SVG 20010904//EN"
 "http://www.w3.org/TR/2001/REC-SVG-20010904/DTD/svg10.dtd">
<svg version="1.0" xmlns="http://www.w3.org/2000/svg"
 width="226.000000pt" height="226.000000pt" viewBox="0 0 226.000000 226.000000"
 preserveAspectRatio="xMidYMid meet">
<metadata>
Created by potrace 1.11, written by Peter Selinger 2001-2013
</metadata>
<g transform="translate(0.000000,226.000000) scale(0.100000,-0.100000)"
fill="#000000" stroke="none">
<path d="M1115 2248 c-136 -18 -269 -83 -365 -178 -82 -82 -104 -110 -139
-185 -58 -123 -81 -276 -60 -390 5 -28 11 -59 13 -70 7 -39 55 -144 86 -192
67 -99 159 -179 266 -231 94 -46 108 -47 127 -9 18 35 76 140 112 202 42 74
65 116 65 120 0 3 -12 5 -26 5 -98 0 -219 92 -248 190 -20 68 -20 112 2 176
71 206 346 250 478 77 l26 -34 34 57 c19 31 34 58 34 59 0 2 30 56 66 119 l65
117 -23 19 c-133 113 -335 172 -513 148z"/>
<path d="M1329 1272 c-15 -26 -41 -74 -59 -107 -18 -33 -53 -95 -78 -138 -24
-43 -42 -81 -39 -84 4 -3 46 -6 94 -7 l88 -1 -3 -162 c-3 -182 -12 -222 -67
-288 -80 -98 -222 -126 -336 -66 l-58 30 -19 -32 c-18 -30 -73 -127 -136 -240
-14 -26 -26 -51 -26 -56 0 -19 160 -90 237 -106 64 -13 184 -13 262 1 270 47
495 286 528 559 3 28 6 185 6 350 0 405 6 395 -230 395 l-138 0 -26 -48z"/>
</g>
</svg>
