<?xml version="1.0" standalone="no"?>
<!DOCTYPE svg PUBLIC "-//W3C//DTD SVG 20010904//EN"
 "http://www.w3.org/TR/2001/REC-SVG-20010904/DTD/svg10.dtd">
<svg version="1.0" xmlns="http://www.w3.org/2000/svg"
 width="398.000000pt" height="398.000000pt" viewBox="0 0 398.000000 398.000000"
 preserveAspectRatio="xMidYMid meet">
<metadata>
Created by potrace 1.11, written by Peter Selinger 2001-2013
</metadata>
<g transform="translate(0.000000,398.000000) scale(0.100000,-0.100000)"
fill="#000000" stroke="none">
<path d="M2128 3975 c-2 -1 -41 -5 -88 -9 -107 -7 -135 -12 -238 -42 -304 -88
-570 -313 -714 -604 -85 -172 -124 -361 -115 -554 7 -139 11 -164 38 -263 88
-322 315 -595 614 -738 69 -34 186 -78 190 -73 3 3 327 583 343 614 11 21 10
22 -41 23 -28 1 -59 3 -67 4 -201 46 -352 198 -391 395 -35 181 50 380 209
489 145 99 331 111 489 32 64 -33 158 -116 189 -169 10 -16 21 -30 24 -30 6 0
43 63 148 255 61 110 89 159 126 223 20 35 36 66 36 69 0 3 10 19 22 35 l21
30 -39 34 c-166 143 -417 249 -634 270 -36 3 -77 7 -92 9 -15 1 -29 1 -30 0z"/>
<path d="M2402 2317 c-5 -7 -87 -151 -182 -322 -94 -170 -176 -314 -181 -319
-5 -6 -9 -14 -9 -18 0 -4 75 -7 168 -6 l167 1 -2 -278 c-2 -248 -4 -285 -22
-344 -99 -320 -445 -449 -734 -274 -32 19 -60 34 -62 32 -1 -2 -57 -101 -124
-220 -66 -119 -138 -247 -160 -285 l-39 -69 26 -22 c64 -52 261 -135 387 -164
149 -33 368 -32 510 1 215 51 404 158 565 320 125 124 208 256 267 420 67 185
68 198 68 845 0 611 2 584 -57 648 -55 59 -72 62 -335 64 -174 1 -244 -2 -251
-10z"/>
</g>
</svg>
